<svg xmlns="http://www.w3.org/2000/svg" viewBox="0 46.86 201.44 100.7">
  <path d="M89.9313,132.8135s-18.199-20.4547-22.4046-25.1376l-.6378.4745c-3.5157,2.5545-9.7025,5.6431-15.1587,5.8262-10.0792.3383-17.49-6.5774-18.1445-15.506A16.8273,16.8273,0,0,1,50.35,80.4013c11.3061,0,21.2249,8.637,28.39,16.5122,0,0,4.0889,4.722,9.9221,11.5433,2.7995,3.3753,5.3393,6.5719,7.1438,8.5624,5.0039,5.52,14.9659,16.2092,22.8519,20.9456,10.5248,6.3213,21.5091,9.6,32.4242,9.6A50.3513,50.3513,0,0,0,153.4977,46.92c-14.5118-.725-29.4735,5.4174-39.4444,12.6961l-2.5527,1.9968s18.1987,20.4548,22.4048,25.1377l.6373-.4745c3.5157-2.5545,9.703-5.6431,15.1587-5.8262,10.0795-.3383,17.49,6.5774,18.1445,15.506a16.8272,16.8272,0,0,1-16.7641,18.0693c-11.3064,0-21.2252-8.637-28.39-16.5122,0,0-4.0908-4.7241-9.9266-11.5485-2.7974-3.3733-5.3356-6.5677-7.1393-8.5572C100.622,71.8871,90.66,61.1981,82.774,56.4617c-10.5245-6.3213-21.5088-9.6-32.4239-9.6a50.3513,50.3513,0,0,0-2.416,100.6447c14.5118.725,29.4733-5.4174,39.4442-12.6961Z" />
</svg>
